<svg width="18" height="12" viewBox="0 0 18 12" fill="none" xmlns="http://www.w3.org/2000/svg">
<path d="M16.4101 4.98497V2.66797C16.4083 2.0055 16.1443 1.37068 15.6759 0.902242C15.2074 0.433801 14.5726 0.169816 13.9101 0.167969H10.5771C9.95992 0.169463 9.36547 0.401253 8.91015 0.817969C8.45508 0.401485 7.86103 0.169712 7.24415 0.167969H3.91015C3.24768 0.169816 2.61286 0.433801 2.14442 0.902242C1.67598 1.37068 1.412 2.0055 1.41015 2.66797V4.98497C1.14912 5.21751 0.940033 5.50244 0.796505 5.8212C0.652977 6.13996 0.578234 6.48539 0.577148 6.83497V11.835H2.24415V10.168H15.5771V11.835H17.2441V6.83497C17.2429 6.48531 17.168 6.13984 17.0243 5.82107C16.8806 5.50231 16.6714 5.21742 16.4101 4.98497ZM10.5771 1.83497H13.9101C14.1308 1.83576 14.3422 1.92378 14.4983 2.07982C14.6543 2.23587 14.7424 2.44729 14.7431 2.66797V4.33497H9.74315V2.66797C9.74394 2.44711 9.83209 2.23555 9.98836 2.07947C10.1446 1.9234 10.3563 1.8355 10.5771 1.83497ZM3.07715 2.66797C3.07794 2.44729 3.16596 2.23587 3.322 2.07982C3.47805 1.92378 3.68947 1.83576 3.91015 1.83497H7.24415C7.46483 1.83576 7.67625 1.92378 7.8323 2.07982C7.98834 2.23587 8.07636 2.44729 8.07715 2.66797V4.33497H3.07715V2.66797ZM2.24415 8.50097V6.83497C2.24494 6.61429 2.33296 6.40287 2.489 6.24682C2.64505 6.09078 2.85647 6.00276 3.07715 6.00197H14.7441C14.9648 6.00276 15.1762 6.09078 15.3323 6.24682C15.4883 6.40287 15.5764 6.61429 15.5771 6.83497V8.50197L2.24415 8.50097Z" fill="#00284B"/>
</svg>
