<svg width="12" height="18" viewBox="0 0 12 18" fill="none" xmlns="http://www.w3.org/2000/svg">
<path d="M6.06336 0.281251C4.58749 0.282312 3.17244 0.856869 2.12922 1.87864C1.08601 2.90041 0.5 4.28578 0.5 5.73025C0.5 11.1793 6.06745 17.7173 6.06745 17.7173C6.06745 17.7173 11.6349 11.1793 11.6349 5.73025C11.6349 5.01434 11.4908 4.30545 11.2107 3.64408C10.9307 2.98272 10.5202 2.38185 10.0028 1.87581C9.48537 1.36977 8.87114 0.968486 8.19519 0.694883C7.51925 0.421281 6.79484 0.280726 6.06336 0.281251ZM6.06336 9.06725C5.38902 9.06725 4.72982 8.87154 4.16913 8.50487C3.60843 8.13819 3.17142 7.61702 2.91336 7.00727C2.6553 6.39751 2.58778 5.72655 2.71934 5.07924C2.8509 4.43192 3.17562 3.83732 3.65246 3.37064C4.12929 2.90395 4.73681 2.58613 5.3982 2.45737C6.05958 2.32861 6.74513 2.3947 7.36814 2.64727C7.99115 2.89984 8.52365 3.32755 8.89829 3.87631C9.27294 4.42508 9.4729 5.07026 9.4729 5.73025C9.4729 6.61528 9.11369 7.46406 8.47427 8.08987C7.83486 8.71568 6.96763 9.06725 6.06336 9.06725ZM3.90954 5.73025C3.90954 5.31261 4.03612 4.90435 4.27326 4.55713C4.51039 4.20991 4.84743 3.93934 5.24173 3.77966C5.63603 3.61997 6.06987 3.57834 6.48835 3.66004C6.90683 3.74173 7.29114 3.94308 7.59267 4.23861C7.89419 4.53414 8.09937 4.91057 8.18225 5.32026C8.26513 5.72995 8.22197 6.1545 8.05825 6.54018C7.89453 6.92586 7.6176 7.25534 7.2625 7.48694C6.9074 7.71854 6.49009 7.84185 6.06336 7.84125C5.49185 7.84046 4.94403 7.6177 4.54019 7.22189C4.13636 6.82609 3.90954 6.2896 3.90954 5.73025Z" fill="#595959"/>
</svg>
