<svg width="18" height="18" viewBox="0 0 18 18" fill="none" xmlns="http://www.w3.org/2000/svg">
<path d="M5.12796 6.67194C6.04917 6.67194 6.79596 5.92515 6.79596 5.00394C6.79596 4.08273 6.04917 3.33594 5.12796 3.33594C4.20675 3.33594 3.45996 4.08273 3.45996 5.00394C3.45996 5.92515 4.20675 6.67194 5.12796 6.67194Z" fill="#00284B"/>
<path d="M15.971 10.0079V3.19291C15.9714 2.72595 15.8332 2.26938 15.5738 1.88104C15.3145 1.4927 14.9458 1.19005 14.5144 1.01143C14.0829 0.832817 13.6082 0.786263 13.1502 0.87767C12.6923 0.969077 12.2718 1.19433 11.942 1.52491L10.9 2.56791C10.7626 2.5241 10.6193 2.50151 10.475 2.50091C10.1555 2.50129 9.843 2.59401 9.57501 2.76791L11.875 5.06791C12.0489 4.79992 12.1416 4.48737 12.142 4.16791C12.1397 4.02443 12.1202 3.88175 12.084 3.74291L13.127 2.69991C13.2239 2.60381 13.347 2.53858 13.4809 2.51247C13.6148 2.48635 13.7535 2.50051 13.8793 2.55316C14.0052 2.60582 14.1126 2.6946 14.188 2.80829C14.2634 2.92198 14.3034 3.05548 14.303 3.19191V10.0059H8.59001C8.34121 9.83094 8.1119 9.62979 7.90601 9.40591L6.73801 8.1149C6.57477 7.93797 6.3775 7.7958 6.15801 7.69691C5.8981 7.57068 5.61295 7.50503 5.32401 7.50491C4.82819 7.50807 4.35374 7.70719 4.00416 8.05883C3.65459 8.41046 3.45826 8.88607 3.45801 9.38191V10.0079H0.958008V15.0079C0.959327 15.4499 1.13549 15.8734 1.44801 16.1859C1.76054 16.4984 2.18403 16.6746 2.62601 16.6759C2.6268 16.8969 2.71492 17.1085 2.87115 17.2648C3.02739 17.421 3.23906 17.5091 3.46001 17.5099H15.137C15.358 17.5091 15.5696 17.421 15.7259 17.2648C15.8821 17.1085 15.9702 16.8969 15.971 16.6759C16.413 16.6746 16.8365 16.4984 17.149 16.1859C17.4615 15.8734 17.6377 15.4499 17.639 15.0079V10.0079H15.971ZM15.971 15.0079H2.62601V11.6759H15.971V15.0079Z" fill="#00284B"/>
</svg>
