<svg width="173" height="38" viewBox="0 0 173 38" fill="none" xmlns="http://www.w3.org/2000/svg">
<path d="M49.1122 29.7837H53.6328C55.0576 29.7837 56.398 29.548 57.6574 29.0765C58.9168 28.6051 60.0109 27.9086 60.9467 26.9798C61.8825 26.0511 62.6213 24.9113 63.1595 23.5568C63.7013 22.2024 63.9722 20.6369 63.9722 18.8568C63.9722 17.2913 63.7154 15.8595 63.2088 14.5543C62.7022 13.2527 61.9881 12.1304 61.0734 11.1876C60.1587 10.2483 59.0681 9.51658 57.8016 8.9924C56.5352 8.47174 55.1526 8.21141 53.6539 8.21141H49.1122V29.7837ZM44.859 6.34336H53.2881C55.8844 6.34336 58.1147 6.58258 59.9828 7.06807C61.8508 7.55003 63.4093 8.3275 64.6547 9.39345C66.0795 10.6142 67.1489 12.0143 67.8666 13.5904C68.5843 15.1665 68.9431 16.8903 68.9431 18.7583C68.9431 20.6264 68.6194 22.2095 67.9792 23.775C67.3389 25.3405 66.3961 26.7019 65.1577 27.8664C63.9159 29.0308 62.3856 29.949 60.5633 30.6209C58.7374 31.2964 56.6478 31.6306 54.2977 31.6306H44.8555V6.33984L44.859 6.34336Z" fill="#CD9B4B"/>
<path d="M78.1396 18.4737H80.5986C81.552 18.4737 82.435 18.3471 83.2406 18.0903C84.0463 17.837 84.7463 17.4782 85.3409 17.0138C85.9319 16.5494 86.3928 15.9865 86.7234 15.3252C87.0541 14.6638 87.2195 13.9215 87.2195 13.0948C87.2195 12.3314 87.0893 11.6313 86.829 10.998C86.5686 10.3613 86.1993 9.81951 85.7208 9.36569C85.2424 8.91539 84.6795 8.56008 84.0216 8.30678C83.3673 8.05349 82.6531 7.92684 81.8757 7.92684H78.1361V18.4737H78.1396ZM73.8863 6.34375H82.6602C84.1729 6.34375 85.5027 6.50558 86.646 6.82923C87.7894 7.15288 88.7428 7.60671 89.5062 8.19421C90.2696 8.77819 90.8465 9.47475 91.2335 10.2839C91.6205 11.093 91.814 11.9725 91.814 12.9259C91.814 13.7139 91.6627 14.4527 91.3637 15.1387C91.0646 15.8247 90.646 16.4439 90.1042 16.9962C89.5624 17.5485 88.9116 18.027 88.1482 18.428C87.3848 18.8291 86.5476 19.1422 85.6294 19.3708L94.843 31.6345H89.9037L81.1123 19.7508H78.1361V31.6345H73.8828V6.34375H73.8863Z" fill="#CD9B4B"/>
<path d="M98.3076 6.33946H102.561V22.7614C102.561 23.8449 102.747 24.8581 103.113 25.8044C103.483 26.7508 104.01 27.581 104.696 28.2917C105.382 29.0058 106.213 29.5652 107.187 29.9803C108.161 30.3919 109.245 30.5994 110.438 30.5994C111.63 30.5994 112.731 30.3919 113.699 29.9803C114.663 29.5652 115.489 29.0058 116.168 28.2917C116.847 27.581 117.368 26.7508 117.734 25.8044C118.096 24.8581 118.276 23.8449 118.276 22.7614V6.33946H120.147V22.7614C120.147 24.0595 119.936 25.2803 119.518 26.4236C119.099 27.5669 118.441 28.5696 117.544 29.428C116.647 30.2863 115.5 30.9653 114.103 31.4684C112.703 31.9715 111.025 32.2212 109.069 32.2212C107.328 32.2212 105.783 31.9715 104.443 31.4684C103.099 30.9653 101.977 30.2828 101.066 29.4174C100.158 28.552 99.4721 27.5388 99.0077 26.3744C98.5433 25.2099 98.3111 23.9681 98.3111 22.6453V6.33594L98.3076 6.33946Z" fill="#CD9B4B"/>
<path d="M129.354 19.0816C129.354 20.8476 129.621 22.4377 130.156 23.8414C130.691 25.2451 131.422 26.4341 132.358 27.4086C133.294 28.3831 134.395 29.1254 135.669 29.639C136.939 30.1527 138.321 30.413 139.809 30.413C140.699 30.413 141.558 30.2406 142.385 29.8958C143.211 29.5511 143.978 29.1043 144.682 28.552C145.389 27.9997 146.019 27.377 146.578 26.6804C147.137 25.9874 147.595 25.2873 147.95 24.5731L149.744 25.7165C149.223 26.5678 148.608 27.384 147.894 28.1685C147.183 28.9495 146.36 29.6425 145.424 30.2476C144.488 30.8527 143.433 31.3312 142.258 31.6865C141.083 32.0418 139.767 32.2212 138.318 32.2212C136.221 32.2212 134.314 31.8729 132.605 31.1729C130.895 30.4728 129.428 29.5265 128.207 28.3303C126.986 27.1342 126.044 25.7411 125.375 24.1439C124.707 22.5503 124.376 20.8617 124.376 19.0816C124.376 17.8995 124.527 16.7456 124.833 15.6199C125.139 14.4941 125.579 13.4387 126.16 12.4537C126.737 11.4687 127.444 10.5645 128.277 9.74485C129.111 8.92516 130.05 8.21805 131.099 7.62703C132.147 7.03601 133.294 6.57867 134.543 6.25501C135.788 5.93136 137.118 5.76953 138.529 5.76953C139.94 5.76953 141.118 5.94895 142.258 6.3113C143.394 6.67365 144.432 7.15562 145.368 7.75016C146.304 8.34821 147.134 9.03774 147.866 9.81873C148.597 10.5997 149.223 11.4194 149.744 12.2708L147.894 13.4915C146.838 11.444 145.656 9.94537 144.348 8.99904C143.039 8.0527 141.53 7.57778 139.827 7.57778C138.363 7.57778 136.998 7.84514 135.725 8.37987C134.455 8.91461 133.343 9.67801 132.397 10.6701C131.451 11.6621 130.705 12.8653 130.167 14.283C129.625 15.7008 129.357 17.3015 129.357 19.0816" fill="#CD9B4B"/>
<path d="M154.465 6.33984V31.6306H172.051V29.9912H158.718V18.6633H167.643V17.0204H158.718V7.97922H172.051V6.33984H154.465Z" fill="#CD9B4B"/>
<path d="M32.226 10.3424C32.1486 9.49804 31.9551 8.68891 31.642 7.92551C31.2304 6.9264 30.6218 6.03987 29.8267 5.29757C29.0317 4.55176 28.029 3.95019 26.8505 3.51396C25.6649 3.07773 24.2859 2.85609 22.7485 2.85609H22.0062C21.3554 2.31433 20.6448 1.8781 19.8849 1.56148C18.8858 1.14284 17.8304 0.94935 16.7434 0.98453C15.6528 1.01971 14.52 1.30467 13.3802 1.82885C12.2333 2.35654 11.1005 3.17623 10.0134 4.26329L9.49982 4.77691C8.49016 4.8332 7.53679 5.05131 6.67137 5.44533C5.66171 5.90618 4.75407 6.60274 3.96956 7.51742C3.29059 8.31248 2.7875 9.32214 2.47792 10.5218C2.1613 11.746 1.99948 13.2377 1.99948 14.9509V14.9931C1.32403 15.746 0.806895 16.5727 0.472687 17.4663C0.0857087 18.5041 -0.0655714 19.6404 0.0258961 20.8435C0.10681 21.8848 0.465636 22.9543 1.09535 24.0238C1.73915 25.1144 2.67845 26.2823 3.88863 27.4925L3.91678 27.5207C3.97307 28.5303 4.19119 29.4837 4.58521 30.3491C5.04606 31.3588 5.74261 32.2664 6.65728 33.0509C7.44883 33.7299 8.46202 34.233 9.66165 34.5425C10.8859 34.8592 12.3775 35.021 14.0908 35.021H14.133C14.8894 35.6964 15.7126 36.2136 16.6061 36.5478C17.6439 36.9348 18.7802 37.086 19.9834 36.9946C21.0247 36.9137 22.0942 36.5548 23.1637 35.9251C24.2542 35.2813 25.4222 34.342 26.6324 33.1318L26.6746 33.0896C27.5189 33.0122 28.3281 32.8187 29.0915 32.5056C30.0906 32.094 30.9771 31.4854 31.7229 30.6904C32.4687 29.8953 33.0703 28.8927 33.503 27.7141C33.9392 26.5286 34.1609 25.1495 34.1609 23.6122V22.8699C37.7457 16.8119 34.5725 12.2526 32.2295 10.3494L32.226 10.3424ZM25.1548 3.83058C26.0519 4.16478 26.847 4.67489 27.5154 5.33627C28.1838 5.99765 28.715 6.82086 29.0985 7.78127C29.1091 7.81293 29.1513 7.93606 29.1513 7.93606C29.496 8.85777 29.6755 9.9202 29.6755 11.1022C29.6755 12.2034 29.4925 13.2271 29.1337 14.1523C28.7713 15.0776 28.2577 15.8867 27.6069 16.5586C26.9525 17.2306 25.6544 17.9553 24.7116 18.1945C22.9878 18.6272 21.1092 18.6659 20.3809 18.6659L19.6879 17.2587C20.8207 16.1435 22.7134 14.8524 23.8637 12.8155C24.4723 11.739 24.8523 10.6801 24.9332 9.63876C25.0247 8.43561 24.8769 7.2993 24.4864 6.2615C24.0959 5.2237 23.4697 4.26329 22.6184 3.41545C22.5902 3.38731 22.5621 3.3662 22.5375 3.34158C23.4556 3.3662 24.3351 3.52803 25.1548 3.83409V3.83058ZM17.6123 16.3722L19.3537 19.9148H15.8181L17.6088 16.3722H17.6123ZM12.4022 3.25011C13.2746 2.85258 14.1963 2.64853 15.1392 2.64502C16.0785 2.64502 17.0389 2.84554 17.9887 3.25363C18.7416 3.58784 19.9095 4.35827 20.7468 5.19555C21.5243 5.97303 22.1188 6.8279 22.5199 7.73553C22.9174 8.64669 23.1285 9.58247 23.139 10.5183C23.1531 11.454 23.0405 12.4215 22.5938 13.2869C21.8304 14.7609 20.286 16.0344 19.4663 16.8084L18.3229 14.4901V14.2649C18.3229 12.7275 18.1013 11.3485 17.6615 10.1629C17.2253 8.98442 16.6273 7.98179 15.8814 7.18673C15.1356 6.39167 14.2526 5.78305 13.25 5.37145C12.3001 4.98096 11.2764 4.78043 10.1999 4.75932C10.8683 4.12609 11.6036 3.61598 12.4022 3.25011ZM3.04433 11.7495C3.41724 10.8489 3.94492 10.0609 4.61686 9.40657C5.28527 8.75575 6.09442 8.2386 7.02317 7.87977L7.08649 7.85866C7.99413 7.5139 8.99674 7.338 10.0697 7.338C11.3186 7.338 12.4338 7.53149 13.3907 7.91495C14.3511 8.29841 15.1743 8.82963 15.8357 9.49804C16.5006 10.1665 17.0072 10.9615 17.3414 11.8586C17.6299 12.6361 17.7952 13.4628 17.8339 14.3282C17.8093 14.3669 17.271 15.2886 16.5428 16.5833C15.301 15.4223 12.3424 13.3784 11.579 13.0266C10.4391 12.5024 9.30634 12.2174 8.21577 12.1823C7.12871 12.1471 6.06978 12.3406 5.07419 12.7592C4.13489 13.1532 3.26948 13.7337 2.49905 14.469C2.52367 13.498 2.70309 12.5798 3.04785 11.7495H3.04433ZM4.51836 23.767C4.13139 24.7098 3.93087 25.73 3.90624 26.7995C3.23782 26.0924 2.71714 25.3184 2.36886 24.4882C1.99596 23.5911 1.81303 22.6588 1.82358 21.723C1.83765 20.7872 2.04522 19.8515 2.44275 18.9403L2.48496 18.8559C2.94934 17.9236 3.46295 17.1532 4.2158 16.4003C5.09882 15.5173 6.02405 14.8665 6.97391 14.4584C7.92376 14.0503 8.88416 13.8427 9.82347 13.8463C10.7663 13.8463 11.681 14.0609 12.5605 14.4514C13.5279 14.8841 14.8859 15.9184 16.2403 17.1321C15.9483 17.6527 15.6352 18.2191 15.3221 18.7996C14.819 18.7574 14.0732 18.7046 13.4153 18.694C12.3001 18.6765 10.4989 18.9157 9.31337 19.3519C8.13485 19.7881 7.13222 20.3862 6.33715 21.132C5.54209 21.8778 4.93349 22.7608 4.52189 23.7635L4.51836 23.767ZM10.8965 33.9726C9.99586 33.5997 9.20782 33.072 8.55348 32.4001C7.90265 31.7282 7.29757 30.7959 7.02669 29.9938C6.7558 29.1952 6.4849 28.0097 6.4849 26.9437C6.4849 25.6948 6.6784 24.5796 7.06186 23.6227C7.44532 22.6623 7.97653 21.8391 8.64495 21.1777C9.31337 20.5128 10.1084 20.0062 11.0055 19.672C11.8956 19.3378 13.3098 19.1549 14.3581 19.2006C14.622 19.2112 14.8683 19.2253 15.0829 19.2358C14.2174 20.847 13.3626 22.5251 12.8806 23.7036C11.973 25.934 10.3828 30.8768 13.6159 34.5214C12.6449 34.4968 11.7267 34.3174 10.8965 33.9726ZM23.6315 34.6481C22.7345 35.021 21.8022 35.2039 20.8664 35.1934C20.4302 35.1863 16.5323 34.8205 14.3581 30.1486C12.9123 27.0387 14.0204 23.672 15.4769 20.6254L15.5402 20.4988H19.5401C19.22 21.1601 17.6228 24.6781 18.3194 27.3553C19.1426 30.525 21.5067 31.9709 22.5128 32.4318C23.5225 32.8926 24.6447 33.1248 25.8444 33.1248C25.876 33.1248 25.9042 33.1213 25.9358 33.1213C25.2322 33.7862 24.4583 34.3068 23.6315 34.6516V34.6481ZM33.1864 26.0114C32.8522 26.912 32.3421 27.7071 31.6807 28.372C31.0193 29.0404 30.1961 29.5716 29.2357 29.9551C28.1627 30.321 27.0862 30.532 25.9147 30.532C24.8136 30.532 23.7899 30.3491 22.8646 29.9903C21.964 29.6385 17.658 27.3553 19.8708 20.9315C21.7002 24.6359 24.6025 26.0853 27.146 26.1698C29.6579 26.2507 32.0254 25.5295 33.6824 23.3941C33.6578 24.3123 33.496 25.1918 33.1899 26.0114H33.1864ZM31.5224 21.3396C30.2876 22.3739 27.9868 23.9675 25.1689 23.3765C24.0994 23.1513 22.4214 22.7151 20.9473 19.8057L20.6167 19.1373C22.4073 19.1056 25.4292 18.9755 26.4987 18.6976C27.6983 18.388 28.708 17.8849 29.5031 17.2059C30.4177 16.4214 31.1143 15.5103 31.5751 14.5041C32.036 13.4945 32.2682 12.3722 32.2682 11.1726C32.2682 11.1339 32.2647 11.0987 32.2647 11.06C36.2752 14.5288 33.6297 19.5771 31.5224 21.3396Z" fill="#CD9B4B"/>
</svg>
