<svg width="21" height="20" viewBox="0 0 21 20" fill="none" xmlns="http://www.w3.org/2000/svg">
<path d="M16.2112 5.17188H4.53421C4.09224 5.17319 3.66874 5.34935 3.35621 5.66188C3.04369 5.9744 2.86753 6.3979 2.86621 6.83988V13.5129C2.86753 13.9549 3.04369 14.3783 3.35621 14.6909C3.66874 15.0034 4.09224 15.1796 4.53421 15.1809H16.2112C16.6532 15.1796 17.0767 15.0034 17.3892 14.6909C17.7017 14.3783 17.8779 13.9549 17.8792 13.5129V6.83988C17.8779 6.3979 17.7017 5.9744 17.3892 5.66188C17.0767 5.34935 16.6532 5.17319 16.2112 5.17188ZM16.2112 13.5129H4.53421V6.83988H16.2112V13.5129Z" fill="#00284B"/>
</svg>
